<?xml version="1.0" encoding="UTF-8"?>
<svg version="1.1" xmlns="http://www.w3.org/2000/svg" width="3264" height="3264">
<path d="M0 0 C1077.12 0 2154.24 0 3264 0 C3264 1077.12 3264 2154.24 3264 3264 C2186.88 3264 1109.76 3264 0 3264 C0 2186.88 0 1109.76 0 0 Z " fill="#FEFEFE" transform="translate(0,0)"/>
<path d="M0 0 C0.77227183 0.00262701 1.54454367 0.00525403 2.34021768 0.00796065 C3.15685601 0.0068068 3.97349435 0.00565296 4.8148793 0.00446415 C7.58686676 0.00178999 10.35879763 0.00632617 13.13078222 0.01075396 C15.12392399 0.01031842 17.1170657 0.00944383 19.11020711 0.00816479 C24.61491515 0.00591643 30.11960393 0.00994576 35.62430951 0.01494285 C41.550046 0.0192423 47.47578131 0.01780129 53.40151891 0.01704058 C63.67746199 0.01651502 73.9533992 0.0196304 84.22934064 0.02527842 C95.01048286 0.03118897 105.79162256 0.03504305 116.57276639 0.03613123 C117.57707153 0.03623434 117.57707153 0.03623434 118.60166565 0.03633953 C122.00169838 0.03667785 125.40173112 0.03697924 128.80176385 0.03726641 C152.90427182 0.03936861 177.00677648 0.04611096 201.10928258 0.05556902 C224.52920428 0.06474865 247.94912507 0.07183461 271.36904821 0.07607684 C272.45129443 0.07627412 272.45129443 0.07627412 273.55540421 0.0764754 C280.80076674 0.07779388 288.04612929 0.0790697 295.29149184 0.08031426 C310.05203944 0.08285069 324.81258699 0.08567194 339.57313451 0.08866534 C340.25184837 0.08880263 340.93056223 0.08893992 341.62984318 0.08908137 C386.97789013 0.09828701 432.32593517 0.11415353 477.67397985 0.13100848 C476.04511255 11.796348 471.89107738 21.63430442 466.67397985 32.13100848 C466.12628942 33.24040789 466.12628942 33.24040789 465.56753454 34.37221941 C454.52511871 56.56007615 440.25948391 75.92084557 424.03091344 94.55239519 C422.70689854 96.09271193 421.41716881 97.65669419 420.1310111 99.22866473 C417.76567435 102.02269526 415.2896418 104.57229717 412.67397985 107.13100848 C411.81417516 108.01401629 410.95437047 108.8970241 410.0685111 109.80678973 C408.79040563 111.11196551 408.79040563 111.11196551 407.48647985 112.44350848 C406.62667516 113.32651629 405.76687047 114.2095241 404.8810111 115.11928973 C402.67397985 117.13100848 402.67397985 117.13100848 400.67397985 117.13100848 C400.67397985 117.79100848 400.67397985 118.45100848 400.67397985 119.13100848 C399.10111301 120.54539254 397.46257989 121.88705249 395.79897985 123.19350848 C392.12507186 126.12333383 388.59117417 129.09451242 385.17397985 132.31850848 C374.18246471 142.27145526 361.80178441 150.62529098 349.23647985 158.44350848 C348.3427567 159.00070574 347.44903356 159.55790301 346.5282279 160.13198504 C339.64654827 164.33447684 339.64654827 164.33447684 335.67397985 165.13100848 C335.67397985 165.79100848 335.67397985 166.45100848 335.67397985 167.13100848 C332.34064652 168.46434181 329.00731318 169.79767514 325.67397985 171.13100848 C324.80128454 171.5048366 323.92858922 171.87866473 323.0294486 172.26382098 C320.67397985 173.13100848 320.67397985 173.13100848 317.67397985 173.13100848 C317.67397985 173.79100848 317.67397985 174.45100848 317.67397985 175.13100848 C309.81445442 178.07084998 302.66660875 178.55818266 294.3275443 178.5157741 C292.33056531 178.52402263 290.33358631 178.53227185 288.33660743 178.54054675 C286.2069801 178.54651511 284.07747062 178.54517446 281.94783887 178.54169878 C277.47536492 178.53482274 273.00314247 178.5508752 268.53071508 178.57009539 C259.01598349 178.60782433 249.50127468 178.62069982 239.98647985 178.63100848 C229.75386272 178.64213321 219.52136446 178.65798445 209.28882673 178.70172104 C205.58314758 178.71686456 201.87767017 178.72608264 198.17195997 178.72031817 C181.13405518 178.69528203 164.51094449 179.30936192 147.67397985 182.13100848 C146.45639454 182.33206446 146.45639454 182.33206446 145.21421155 182.53718218 C137.46890871 183.82885088 130.06097435 185.44357578 122.67397985 188.13100848 C120.8865022 188.70668143 119.09466362 189.26896732 117.29897985 189.81850848 C116.48687047 190.06987566 115.6747611 190.32124285 114.83804235 190.58022723 C112.67397985 191.13100848 112.67397985 191.13100848 109.67397985 191.13100848 C109.67397985 191.79100848 109.67397985 192.45100848 109.67397985 193.13100848 C109.14030797 193.3501491 108.6066361 193.56928973 108.05679235 193.79507098 C97.79904494 198.16082506 89.18066856 203.96245057 80.67397985 211.13100848 C79.92245641 211.73557879 79.17093297 212.3401491 78.3966361 212.96303973 C63.68335888 225.24565252 54.59596371 242.58018601 47.67397985 260.13100848 C46.93534704 261.86350848 46.93534704 261.86350848 46.18179235 263.63100848 C42.2056426 273.42795331 40.23712897 283.58146373 38.36147985 293.94350848 C38.2323319 294.65270434 38.10318395 295.3619002 37.97012243 296.09258685 C36.41306236 304.74329554 35.20491415 313.34712291 34.67397985 322.13100848 C34.01397985 322.13100848 33.35397985 322.13100848 32.67397985 322.13100848 C32.73682165 323.60356097 32.73682165 323.60356097 32.80093297 325.10586199 C32.9480948 328.82350618 33.0384004 332.54090749 33.11343297 336.26064715 C33.15314023 337.85614243 33.20732991 339.4513572 33.27749547 341.0458034 C33.74734884 352.01480652 32.45729034 359.61929129 26.60171422 369.00967059 C24.94468654 371.69268717 23.73031482 374.17306262 22.67397985 377.13100848 C22.01397985 377.13100848 21.35397985 377.13100848 20.67397985 377.13100848 C20.41616735 377.83354754 20.15835485 378.5360866 19.89272985 379.25991473 C11.15431548 399.84560243 -7.90307868 423.96281713 -27.32602015 435.13100848 C-27.98602015 435.13100848 -28.64602015 435.13100848 -29.32602015 435.13100848 C-29.32602015 435.79100848 -29.32602015 436.45100848 -29.32602015 437.13100848 C-45.44336603 446.33572294 -61.64111929 446.92937829 -79.32602015 442.13100848 C-102.19870409 434.48226529 -118.68803762 416.23356287 -129.35727015 395.08706316 C-145.65277357 362.11413046 -145.65277357 362.11413046 -145.58671656 346.21877703 C-145.59245488 344.74569275 -145.59245488 344.74569275 -145.59830913 343.2428492 C-145.60860727 339.96007141 -145.60465281 336.67746958 -145.60067835 333.39468035 C-145.60502698 331.03690588 -145.61021064 328.67913283 -145.61616603 326.32136187 C-145.62956131 319.91752783 -145.63013334 313.5137528 -145.62760273 307.10990748 C-145.62631726 303.10067681 -145.62894554 299.091455 -145.6325902 295.08222613 C-145.63318539 294.4154024 -145.63378058 293.74857868 -145.63439381 293.06154817 C-145.63560568 291.70645973 -145.63681982 290.35137129 -145.63803618 288.99628285 C-145.64891035 276.28873256 -145.64675172 263.5812088 -145.64065134 250.87365702 C-145.63550051 239.29835759 -145.64668912 227.72314279 -145.66574956 216.14786008 C-145.68522609 204.22701865 -145.69336573 192.30621703 -145.68962631 180.38535962 C-145.6877267 173.70735887 -145.69034913 167.02944506 -145.70434085 160.3514522 C-145.71703952 154.0542392 -145.71486276 147.75719308 -145.70192996 141.45998225 C-145.69958934 139.16690481 -145.70220676 136.87381519 -145.71055308 134.58075175 C-145.78566836 112.31087898 -145.16978476 87.40256895 -135.20883265 66.97085223 C-133.99336291 64.43772723 -133.15109115 61.81248922 -132.32602015 59.13100848 C-131.66602015 59.13100848 -131.00602015 59.13100848 -130.32602015 59.13100848 C-130.21258265 58.39237566 -130.09914515 57.65374285 -129.98227015 56.89272723 C-127.03310614 44.481662 -113.20237045 33.16416702 -103.32602015 26.13100848 C-101.02302408 24.92756316 -98.76346725 24.05723837 -96.32602015 23.13100848 C-95.52164515 22.47100848 -94.71727015 21.81100848 -93.88852015 21.13100848 C-90.58390124 18.55179372 -87.2508356 17.47833318 -83.32602015 16.13100848 C-82.06493256 15.65361038 -80.80459228 15.17423613 -79.54477015 14.69350848 C-59.10539424 7.01189687 -38.01731367 3.92842492 -16.37045375 2.08169207 C-15.08219691 1.9703493 -13.79394007 1.85900652 -12.46664515 1.74428973 C-11.30681117 1.64930193 -10.14697718 1.55431414 -8.95199671 1.45644793 C-5.70176279 1.05364374 -3.55217347 0.01149282 0 0 Z " fill="#1582AA" transform="translate(465.3260201513767,1528.868991523981)"/>
<path d="M0 0 C14.56172439 -0.75289308 26.70753886 -0.27506556 40 6 C41.03511719 6.47953125 42.07023437 6.9590625 43.13671875 7.453125 C49.75397259 10.81251188 55.43518423 15.11714695 61 20 C62.09054687 20.93005859 62.09054687 20.93005859 63.203125 21.87890625 C79.26815798 36.64371174 88.73561239 58.42845111 96.0625 78.5625 C96.34971924 79.3344873 96.63693848 80.10647461 96.93286133 80.90185547 C101.44674782 93.98724265 100.15454276 108.60941392 100.16113281 122.26586914 C100.16576827 124.51264527 100.17079389 126.75942061 100.17617798 129.00619507 C100.18923336 135.08301239 100.19573339 141.1598187 100.20018864 147.23664784 C100.2031303 151.0420129 100.2072371 154.84737501 100.21169281 158.65273857 C100.22378841 169.22086618 100.23417503 179.78899122 100.2375679 190.35712528 C100.23778747 191.03144235 100.23800703 191.70575942 100.23823325 192.40051034 C100.23845153 193.07629239 100.23866981 193.75207445 100.2388947 194.44833475 C100.23933814 195.81736314 100.23978471 197.18639153 100.24023438 198.55541992 C100.2404558 199.23448202 100.24067723 199.91354411 100.24090537 200.61318385 C100.2448487 211.60241069 100.26229431 222.59157104 100.2855939 233.58077223 C100.30940725 244.90510314 100.32151714 256.2293896 100.32293582 267.55374998 C100.32397895 273.89509043 100.32978149 280.23633689 100.34775543 286.57765388 C100.36435345 292.54906582 100.36633521 298.52031425 100.35761642 304.49174118 C100.35685231 306.66879022 100.3611049 308.84584849 100.37107468 311.02287483 C100.51213704 343.77717056 94.5779183 375.84832666 70.94921875 400.125 C67.23554718 403.81358727 63.27807784 406.99006666 59 410 C58.2575 410.56976562 57.515 411.13953125 56.75 411.7265625 C14.19940831 443.49953722 -51.6961684 438.16469725 -101.92897916 438.11606562 C-107.59323191 438.11170227 -113.25748371 438.11321167 -118.92173767 438.1139679 C-128.7089058 438.11448944 -138.4960672 438.11138149 -148.28323364 438.10573006 C-162.43341869 438.09756463 -176.58360051 438.09499469 -190.73378766 438.09374207 C-213.69768996 438.09155943 -236.66158803 438.08492948 -259.62548828 438.07543945 C-281.91813132 438.06623754 -304.2107734 438.05916252 -326.50341797 438.05493164 C-327.53630486 438.05473435 -327.53630486 438.05473435 -328.59005815 438.05453308 C-335.50592143 438.05321442 -342.42178472 438.05193863 -349.33764802 438.05069422 C-407.2251011 438.04027419 -465.11255046 438.02264731 -523 438 C-519.75758112 417.22808301 -508.95294899 396.06662259 -497 379 C-496.23759311 377.87243689 -495.47719797 376.7435111 -494.71875 375.61328125 C-490.12556995 368.80995254 -485.26378558 362.29790983 -480 356 C-479.36070557 355.23333008 -479.36070557 355.23333008 -478.70849609 354.45117188 C-466.78139514 340.19754999 -454.29762971 325.98847638 -440.15625 313.88671875 C-438.64834184 312.56729911 -437.1711543 311.21231273 -435.71875 309.83203125 C-427.11614859 301.69407652 -417.62296727 294.8720538 -408 288 C-407.36707031 287.5467334 -406.73414063 287.0934668 -406.08203125 286.62646484 C-385.56577146 271.99422226 -385.56577146 271.99422226 -374.39453125 267.93359375 C-371.04285274 266.62682187 -367.94718726 264.90610143 -364.8125 263.1484375 C-355.31614413 259.27075886 -345.25516966 259.74858935 -335.19018555 259.83642578 C-333.50539511 259.84354966 -331.82060041 259.84971843 -330.13580322 259.85501099 C-326.52420137 259.86805257 -322.91270081 259.88713188 -319.30115318 259.91080093 C-313.57976361 259.94758999 -307.85839767 259.96663865 -302.13691711 259.9826355 C-285.8728269 260.03078365 -269.60888498 260.10255754 -253.3449707 260.19189453 C-244.34971573 260.24114862 -235.35451862 260.27577626 -226.35914832 260.29501331 C-220.68246744 260.30802454 -215.00626791 260.33898267 -209.32975233 260.38364816 C-205.78479294 260.4072714 -202.23994707 260.41385231 -198.69491577 260.41584396 C-197.06358821 260.42010327 -195.43226037 260.43116193 -193.80103493 260.4499054 C-184.86573724 260.54851819 -177.05540529 259.94088774 -168.53210163 256.86015129 C-166 256 -166 256 -163 256 C-163 255.34 -163 254.68 -163 254 C-162.25234375 253.74605469 -161.5046875 253.49210937 -160.734375 253.23046875 C-159.74953125 252.88628906 -158.7646875 252.54210938 -157.75 252.1875 C-156.77546875 251.85105469 -155.8009375 251.51460937 -154.796875 251.16796875 C-151.98848942 250.13820406 -151.98848942 250.13820406 -149.890625 248.36328125 C-148 247 -148 247 -144 247 C-144 246.34 -144 245.68 -144 245 C-141.94152818 243.61449012 -139.87843922 242.33199844 -137.75 241.0625 C-110.06776413 223.77911343 -94.42057464 193.01613811 -87 162 C-82.85102186 143.37805359 -79.59147623 124.18831772 -80.12109375 105.046875 C-80.43491302 87.96394893 -74.95392895 76.35100933 -66 62 C-65.4033252 61.03304199 -64.80665039 60.06608398 -64.19189453 59.06982422 C-52.15519925 39.78274356 -35.16207066 14.3107765 -13 6 C-10.69922273 4.93388174 -8.40446176 3.85611242 -6.11328125 2.76953125 C-4 2 -4 2 0 2 C0 1.34 0 0.68 0 0 Z " fill="#1582AA" transform="translate(1008,1527)"/>
<path d="M0 0 C53.34649712 -0.18851215 106.69302444 -0.36361117 160.0397644 -0.46577454 C160.83071467 -0.46729316 161.62166493 -0.46881179 162.43658338 -0.47037644 C179.63066499 -0.50330696 196.82475014 -0.53377773 214.01884056 -0.56171862 C222.45217704 -0.57543799 230.88551257 -0.58970027 239.31884766 -0.60424805 C240.15801616 -0.6056864 240.99718467 -0.60712475 241.86178253 -0.60860668 C269.00724534 -0.65538852 296.15245444 -0.73794271 323.29776388 -0.83926943 C351.21906276 -0.94330216 379.14022152 -1.01080312 407.06171092 -1.03306489 C411.01548458 -1.03623408 414.96925778 -1.03981607 418.92303085 -1.04364967 C419.70110503 -1.04439133 420.47917921 -1.04513298 421.2808314 -1.04589711 C433.74975237 -1.05883992 446.21823702 -1.10970503 458.68698083 -1.17515237 C471.25631589 -1.24030385 483.8252233 -1.26455105 496.39472093 -1.24851515 C503.19170092 -1.24094206 509.98733937 -1.25180471 516.78410339 -1.31126022 C568.26105391 -1.73942638 568.26105391 -1.73942638 591.21213126 9.63024461 C594.85521321 11.4201894 598.58546569 12.94787713 602.34317315 14.4783352 C604.62684644 15.41268402 606.89113095 16.38380501 609.15234375 17.37109375 C612.30836951 18.73111942 615.49122093 19.90425332 618.75 21 C624.09703092 22.85509236 628.94901095 25.51635499 633.87597656 28.27148438 C636.87108193 29.93525507 639.595868 31.42837884 643 32 C643 32.66 643 33.32 643 34 C644.32 34 645.64 34 647 34 C647 34.66 647 35.32 647 36 C647.82371094 36.24234375 648.64742187 36.4846875 649.49609375 36.734375 C653.60183689 38.2173859 657.25890378 40.12447334 661.0625 42.25 C661.8361792 42.68183594 662.6098584 43.11367187 663.40698242 43.55859375 C678.0071864 51.86087002 691.96382153 61.4124159 705 72 C706.01578125 72.81210938 707.0315625 73.62421875 708.078125 74.4609375 C721.33821214 85.24348204 733.55776866 97.47012736 744 111 C745.33305348 112.62522958 746.66638783 114.25022883 748 115.875 C760.37409258 131.43378045 770.76311256 148.70878217 781.25 165.5625 C782.09159668 166.91021484 782.09159668 166.91021484 782.95019531 168.28515625 C783.72508301 169.538125 783.72508301 169.538125 784.515625 170.81640625 C785.20060059 171.92157593 785.20060059 171.92157593 785.89941406 173.04907227 C787 175 787 175 788 178 C733.55197217 178.01711429 679.10394409 178.03303543 624.65591431 178.04234314 C623.85037277 178.0424812 623.04483124 178.04261925 622.21487936 178.04276149 C604.7092974 178.04575424 587.20371541 178.04852444 569.69813337 178.05106533 C561.11369698 178.05231269 552.5292606 178.05360924 543.94482422 178.05493164 C542.66342602 178.05512778 542.66342602 178.05512778 541.35614099 178.05532788 C513.65504358 178.05959104 485.95394821 178.0671037 458.25285204 178.07629722 C429.79204833 178.08572574 401.33124576 178.0918845 372.87044052 178.09391499 C368.8527508 178.09420316 364.83506108 178.09452879 360.81737137 178.09487724 C360.02661383 178.09494467 359.23585629 178.09501209 358.42113641 178.09508156 C345.67988651 178.09626437 332.93864009 178.10090539 320.19739161 178.10683203 C307.39555625 178.11271334 294.59372435 178.11496947 281.79188769 178.11350138 C274.18130903 178.11273943 266.57074302 178.11478079 258.96016665 178.12079754 C253.284166 178.12497923 247.60817592 178.12396656 241.932175 178.12089889 C239.63060264 178.12047459 237.32902923 178.12175853 235.02745895 178.12488318 C231.90875903 178.12887249 228.79012183 178.12674742 225.67142296 178.12304783 C224.76949945 178.12567484 223.86757594 178.12830186 222.93832141 178.13100848 C218.50991367 178.11906709 214.35967702 177.89596249 210 177 C210 176.34 210 175.68 210 175 C209.30519531 174.96003906 208.61039063 174.92007812 207.89453125 174.87890625 C196.36195421 173.69495347 186.42564826 168.8113827 176 164 C176 163.34 176 162.68 176 162 C175.2575 161.87625 174.515 161.7525 173.75 161.625 C171.19858515 161.04513299 169.2732427 160.26291261 167 159 C167 158.34 167 157.68 167 157 C166.31550781 156.91492187 165.63101563 156.82984375 164.92578125 156.7421875 C161.27127675 155.81514364 158.36071452 154.08855454 155.1875 152.125 C154.5380542 151.72861328 153.8886084 151.33222656 153.21948242 150.92382812 C141.36686702 143.60372094 130.0304109 135.50050014 119 127 C118.46197754 126.58814453 117.92395508 126.17628906 117.36962891 125.75195312 C104.21961509 115.66863322 91.81404556 104.78551864 79.66674805 93.52319336 C78.38568659 92.35246794 77.09329031 91.19413627 75.79614258 90.04125977 C69.4242553 84.37339307 63.3288362 78.4800893 57.3125 72.4375 C56.41466797 71.54353516 55.51683594 70.64957031 54.59179688 69.72851562 C41.49002936 56.60755138 41.49002936 56.60755138 38.5 51.375 C36.99687915 48.99505866 35.66810885 47.81053776 33.5 46.0625 C30.21782982 43.38457872 28.80468241 40.85545787 27 37 C25.3540349 35.31288577 23.68762851 33.6454378 22 32 C20.5 29.5 20.5 29.5 19 27 C18.154375 26.154375 17.30875 25.30875 16.4375 24.4375 C14.20175922 22.20175922 13.36941201 20.73882402 12 18 C11.278125 17.319375 10.55625 16.63875 9.8125 15.9375 C5.69090076 12.01334264 2.75891187 6.93741865 0 2 C0 1.34 0 0.68 0 0 Z " fill="#137FA6" transform="translate(322,1290)"/>
<path d="M0 0 C-2 2 -2 2 -5.625 2.125 C-6.73875 2.08375 -7.8525 2.0425 -9 2 C-9 2.66 -9 3.32 -9 4 C-9.65484375 4.11069824 -10.3096875 4.22139648 -10.984375 4.33544922 C-13.99013657 4.84543101 -16.99506332 5.36018096 -20 5.875 C-21.02996094 6.04902344 -22.05992187 6.22304687 -23.12109375 6.40234375 C-28.8265705 7.38354039 -34.40685198 8.50654163 -40 10 C-40.6398584 10.17015625 -41.2797168 10.3403125 -41.93896484 10.515625 C-45.13228624 11.36739085 -48.32156077 12.23413034 -51.51171875 13.09765625 C-54.33492299 13.8279588 -57.13423049 14.46849017 -60 15 C-60 15.66 -60 16.32 -60 17 C-60.53367187 17.21914062 -61.06734375 17.43828125 -61.6171875 17.6640625 C-71.87493491 22.02981659 -80.49331129 27.8314421 -89 35 C-89.75152344 35.60457031 -90.50304687 36.20914062 -91.27734375 36.83203125 C-105.99062097 49.11464404 -115.07801614 66.44917753 -122 84 C-122.49242187 85.155 -122.98484375 86.31 -123.4921875 87.5 C-127.46833725 97.29694484 -129.43685088 107.45045525 -131.3125 117.8125 C-131.44164795 118.52169586 -131.5707959 119.23089172 -131.70385742 119.96157837 C-133.26091748 128.61228706 -134.4690657 137.21611443 -135 146 C-135.66 146 -136.32 146 -137 146 C-136.95810547 146.98170166 -136.91621094 147.96340332 -136.87304688 148.97485352 C-136.72588504 152.69249771 -136.63557944 156.40989902 -136.56054688 160.12963867 C-136.52083962 161.72513396 -136.46664994 163.32034873 -136.39648438 164.91479492 C-135.92663101 175.88379804 -137.21668951 183.48828282 -143.07226562 192.87866211 C-144.72929331 195.56167869 -145.94366503 198.04205414 -147 201 C-147.66 201 -148.32 201 -149 201 C-149.38671875 202.05380859 -149.38671875 202.05380859 -149.78125 203.12890625 C-158.51966437 223.71459395 -177.57705853 247.83180865 -197 259 C-197.66 259 -198.32 259 -199 259 C-199 259.66 -199 260.32 -199 261 C-215.11734588 270.20471447 -231.31509913 270.79836981 -249 266 C-271.87268394 258.35125682 -288.36201747 240.1025544 -299.03125 218.95605469 C-314.11959188 188.42573792 -314.11959188 188.42573792 -314.1328125 177.78125 C-314.13498779 176.77231689 -314.13716309 175.76338379 -314.1394043 174.72387695 C-314.13465088 173.65999756 -314.12989746 172.59611816 -314.125 171.5 C-314.12089111 170.41227295 -314.11678223 169.3245459 -314.11254883 168.20385742 C-314.02940682 156.28594253 -312.89274486 145.57097943 -310 134 C-309.74605469 132.79859375 -309.49210937 131.5971875 -309.23046875 130.359375 C-306.81404273 119.45787313 -302.69218732 109.57975304 -298.09350586 99.42553711 C-297.37420975 97.83004553 -296.66632867 96.22934985 -295.97094727 94.62329102 C-284.67105265 68.55532675 -264.50416427 46.63166909 -241 31 C-239.98164063 30.29746094 -238.96328125 29.59492187 -237.9140625 28.87109375 C-195.32972799 0.90117738 -143.18010839 1.03391939 -94.21875 0.68359375 C-91.738726 0.66294093 -89.25870486 0.64194288 -86.77868652 0.62062073 C-80.33109976 0.56613475 -73.88348505 0.51643406 -67.43585205 0.46777344 C-60.85694856 0.41717041 -54.27808705 0.36159596 -47.69921875 0.30664062 C-38.09962788 0.22734366 -28.50002814 0.14938103 -18.90039062 0.07592773 C-17.41514137 0.06425819 -17.41514137 0.06425819 -15.89988708 0.05235291 C-10.59973441 0.01251231 -5.30030229 -0.00757896 0 0 Z " fill="#0E7499" transform="translate(635,1705)"/>
<path d="M0 0 C14.56172439 -0.75289308 26.70753886 -0.27506556 40 6 C41.03511719 6.47953125 42.07023437 6.9590625 43.13671875 7.453125 C49.75397259 10.81251188 55.43518423 15.11714695 61 20 C61.72703125 20.62003906 62.4540625 21.24007813 63.203125 21.87890625 C75.99969783 33.63978524 84.07131714 49.88901659 90.92773438 65.59423828 C91.88036381 67.73158129 92.89843166 69.81424746 93.953125 71.90234375 C102.56889745 90.02633987 99.04120481 113.24542132 94 132 C93.80212891 132.75345703 93.60425781 133.50691406 93.40039062 134.28320312 C86.60096863 159.78653676 75.39923872 183.04120384 58 203 C57.16855469 203.97710938 56.33710937 204.95421875 55.48046875 205.9609375 C48.75671788 213.70510177 41.29391482 219.99551655 33 226 C32.41234863 226.43054687 31.82469727 226.86109375 31.21923828 227.3046875 C-4.56164588 253.248531 -47.96099208 259.3286038 -91 260.5625 C-91.71337524 260.58367889 -92.42675049 260.60485779 -93.16174316 260.62667847 C-120.42509668 261.4028502 -147.72866254 261.08537539 -175 261 C-172.50325004 258.32737835 -170.93515678 257.49502954 -167.3125 256.8125 C-166.10013672 256.57466797 -166.10013672 256.57466797 -164.86328125 256.33203125 C-164.24839844 256.22246094 -163.63351562 256.11289063 -163 256 C-163 255.34 -163 254.68 -163 254 C-162.25234375 253.74605469 -161.5046875 253.49210937 -160.734375 253.23046875 C-159.74953125 252.88628906 -158.7646875 252.54210938 -157.75 252.1875 C-156.77546875 251.85105469 -155.8009375 251.51460937 -154.796875 251.16796875 C-151.98848942 250.13820406 -151.98848942 250.13820406 -149.890625 248.36328125 C-148 247 -148 247 -144 247 C-144 246.34 -144 245.68 -144 245 C-141.94152818 243.61449012 -139.87843922 242.33199844 -137.75 241.0625 C-110.06776413 223.77911343 -94.42057464 193.01613811 -87 162 C-82.85102186 143.37805359 -79.59147623 124.18831772 -80.12109375 105.046875 C-80.43491302 87.96394893 -74.95392895 76.35100933 -66 62 C-65.4033252 61.03304199 -64.80665039 60.06608398 -64.19189453 59.06982422 C-52.15519925 39.78274356 -35.16207066 14.3107765 -13 6 C-10.69922273 4.93388174 -8.40446176 3.85611242 -6.11328125 2.76953125 C-4 2 -4 2 0 2 C0 1.34 0 0.68 0 0 Z " fill="#0E749A" transform="translate(1008,1527)"/>
<path d="M0 0 C12.87 0 25.74 0 39 0 C39 73.59 39 147.18 39 223 C4.9378125 223.12375 4.9378125 223.12375 -29.8125 223.25 C-40.54744995 223.30462402 -40.54744995 223.30462402 -51.49926758 223.36035156 C-60.27282715 223.37841797 -60.27282715 223.37841797 -64.38676453 223.3817749 C-67.24557544 223.38548505 -70.10408592 223.40040828 -72.96281433 223.42230225 C-76.62058245 223.4499404 -80.27791994 223.45792795 -83.93578279 223.4522891 C-85.89644155 223.45401779 -87.85705379 223.47536721 -89.81758595 223.497715 C-102.38935488 223.43912409 -111.84583476 219.93013084 -120.87109375 211.1875 C-127.21293968 204.42286434 -132.09271827 196.13198733 -132.14717102 186.682724 C-132.15432632 185.82646423 -132.16148163 184.97020447 -132.16885376 184.08799744 C-132.17154266 183.15653397 -132.17423157 182.2250705 -132.17700195 181.26538086 C-132.18357315 180.27784821 -132.19014435 179.29031555 -132.19691467 178.27285767 C-132.21662906 175.00351889 -132.22830802 171.73422607 -132.23828125 168.46484375 C-132.24235678 167.34588778 -132.2464323 166.2269318 -132.25063133 165.07406807 C-132.27148711 159.14809479 -132.28578931 153.22214461 -132.29516602 147.29614258 C-132.30621141 141.19219439 -132.34059152 135.08861264 -132.38033772 128.98479366 C-132.40655887 124.27740325 -132.4148629 119.5700993 -132.41844749 114.86264229 C-132.42330153 112.61371965 -132.43488153 110.36480056 -132.45348549 108.11594963 C-132.47798676 104.95713685 -132.4768913 101.79926072 -132.4699707 98.64038086 C-132.48278076 97.72308701 -132.49559082 96.80579315 -132.50878906 95.86070251 C-132.41759161 84.35567161 -127.78288105 74.13203613 -119.9296875 65.8046875 C-110.6785383 57.06928181 -101.73887205 54.83738465 -89.34448242 54.88647461 C-88.3781488 54.88632858 -87.41181519 54.88618256 -86.41619873 54.8860321 C-83.22926573 54.88672752 -80.04239152 54.8945026 -76.85546875 54.90234375 C-74.64301078 54.90420925 -72.4305524 54.90563253 -70.21809387 54.90663147 C-64.40006364 54.91044628 -58.58205844 54.92026775 -52.76403809 54.93133545 C-45.78060676 54.94337215 -38.79716706 54.94795674 -31.81372833 54.95378876 C-21.20913482 54.96348003 -10.60459622 54.98264387 0 55 C0 36.85 0 18.7 0 0 Z " fill="#0B6C8F" transform="translate(2780,1515)"/>
<path d="M0 0 C12.54 0 25.08 0 38 0 C38 18.15 38 36.3 38 55 C45.033125 54.9071875 52.06625 54.814375 59.3125 54.71875 C63.79693489 54.67782136 68.281136 54.63930708 72.765625 54.609375 C79.86702949 54.56174962 86.96760042 54.50571925 94.06835938 54.39648438 C99.80025292 54.30887018 105.53125138 54.26158199 111.26376343 54.24098206 C113.43889436 54.22632262 115.61398227 54.19769887 117.78872681 54.15415955 C134.1588731 53.83977881 145.46808579 56.26153733 158.625 66.375 C166.02419024 73.56138167 169.93874997 82.53113798 170.27415466 92.79156494 C170.29495189 94.58523878 170.30509417 96.37905763 170.30639648 98.17285156 C170.31472 99.15936203 170.32304352 100.1458725 170.33161926 101.16227722 C170.35560154 104.40510065 170.36447716 107.64772245 170.37109375 110.890625 C170.38006924 113.15972958 170.38919124 115.42883358 170.39845276 117.69793701 C170.41491351 122.44886713 170.42263753 127.19972701 170.42553711 131.95068359 C170.43091678 138.01418216 170.46859322 144.07701329 170.51428127 150.14032364 C170.54414236 154.82631799 170.55126265 159.51215337 170.55226326 164.19823456 C170.55644779 166.43238124 170.56881032 168.66652918 170.58978081 170.90058136 C170.71974857 185.94376828 170.21686792 197.78118205 160.1484375 209.828125 C151.66743994 218.40164254 143.87132787 223.00707748 131.7989502 223.24050903 C129.3405789 223.24629903 126.8821664 223.24104607 124.42382812 223.22705078 C123.04115561 223.22643722 121.65848247 223.22670661 120.27581024 223.2277813 C116.59244975 223.2282305 112.90922074 223.2166877 109.22589111 223.20256042 C105.76224377 223.19112154 102.29862748 223.19063153 98.83496094 223.18920898 C88.72329006 223.17873849 78.61164334 223.15081599 68.5 223.125 C45.895 223.08375 23.29 223.0425 0 223 C0 149.41 0 75.82 0 0 Z " fill="#1580A7" transform="translate(2070,1515)"/>
<path d="M0 0 C2.36264993 0.00171349 4.72530177 0.001643 7.08795166 -0.00012207 C12.02024723 0.00152504 16.95208492 0.02011657 21.88427734 0.05175781 C28.19455545 0.09152012 34.50423745 0.0957889 40.81461716 0.08829498 C45.68576483 0.08522134 50.55677939 0.09735856 55.42789459 0.11442566 C57.75462255 0.12143602 60.08136558 0.12458258 62.40810394 0.12373352 C65.66004077 0.12553785 68.91127173 0.14697223 72.16308594 0.17382812 C73.11600021 0.17089752 74.06891449 0.16796692 75.05070496 0.16494751 C87.07908244 0.31765913 97.33453329 6.15153296 105.73046875 14.64453125 C110.90953273 21.22049289 114.80899886 29.38031703 114.84356689 37.84182739 C114.84927704 38.68270401 114.85498718 39.52358063 114.86087036 40.38993835 C114.86254715 41.76143791 114.86254715 41.76143791 114.86425781 43.16064453 C114.86922272 44.13027634 114.87418762 45.09990814 114.87930298 46.09892273 C114.89391173 49.30814321 114.90072558 52.51731422 114.90625 55.7265625 C114.91200386 57.96133424 114.91776157 60.19610597 114.92352295 62.43087769 C114.93403022 67.11993642 114.93987424 71.80897803 114.94335938 76.49804688 C114.9488341 82.48992806 114.97284159 88.48158086 115.00133133 94.47339058 C115.02001115 99.09238329 115.02516623 103.71132168 115.02669525 108.33034897 C115.0297118 110.53821939 115.0377064 112.74608909 115.05088043 114.95392227 C115.06804753 118.05295091 115.06603428 121.15143062 115.05957031 124.25048828 C115.0687851 125.15267593 115.07799988 126.05486359 115.0874939 126.98439026 C115.00895045 139.08214025 110.70858351 149.49503903 102.1875 158.1484375 C93.07721532 166.08739987 83.87145154 169.2192592 71.86669922 169.09545898 C70.84567108 169.10086197 69.82464294 169.10626495 68.77267456 169.11183167 C65.43408243 169.12422867 62.09636788 169.10789009 58.7578125 169.08984375 C56.41854813 169.08999892 54.0792835 169.09149093 51.74002075 169.09425354 C46.85309391 169.09563342 41.96646203 169.08314623 37.07958984 169.06030273 C30.83105085 169.03188825 24.58300029 169.03466974 18.33442497 169.04739285 C13.50957095 169.0543626 8.68482889 169.04654637 3.85998917 169.03413582 C1.5564123 169.02963618 -0.74717664 169.02927145 -3.05075455 169.03320122 C-6.27383139 169.03612693 -9.49624543 169.01954199 -12.71923828 168.99780273 C-13.66077759 169.00230438 -14.60231689 169.00680603 -15.5723877 169.01144409 C-26.64657271 168.88797634 -35.34569026 165.09457481 -43.46484375 157.58984375 C-49.79491034 150.95099343 -55.38905252 141.87478786 -55.44404602 132.44815063 C-55.45477898 131.18277969 -55.45477898 131.18277969 -55.46572876 129.8918457 C-55.46841766 128.96927979 -55.47110657 128.04671387 -55.47387695 127.09619141 C-55.48373375 125.6345607 -55.48373375 125.6345607 -55.49378967 124.1434021 C-55.5135357 120.91070477 -55.52519241 117.67805409 -55.53515625 114.4453125 C-55.53923178 113.33896832 -55.5433073 112.23262413 -55.54750633 111.09275436 C-55.56837938 105.22931861 -55.58267194 99.36590629 -55.59204102 93.50244141 C-55.60306704 87.46928204 -55.63741952 81.43649541 -55.67721272 75.40346718 C-55.70347497 70.746606 -55.71174171 66.08983199 -55.71532249 61.43290329 C-55.72016897 59.21075315 -55.73172702 56.98860639 -55.75036049 54.76652908 C-55.98563492 24.83249086 -55.98563492 24.83249086 -45.296875 13.59375 C-44.64847656 12.90539063 -44.00007813 12.21703125 -43.33203125 11.5078125 C-30.57274773 -0.90537834 -16.753688 -0.12890496 0 0 Z " fill="#11799F" transform="translate(2317.296875,1569.40625)"/>
<path d="M0 0 C1.50683601 -0.01270432 1.50683601 -0.01270432 3.04411316 -0.02566528 C6.34171461 -0.04892806 9.63884637 -0.05005981 12.93652344 -0.04882812 C15.24664493 -0.05593719 17.55676467 -0.06363727 19.86688232 -0.07189941 C24.70183217 -0.08532045 29.53661881 -0.08692409 34.37158203 -0.08105469 C40.53923536 -0.07516729 46.70609917 -0.10572264 52.87360001 -0.14617157 C57.64371899 -0.1721413 62.41365034 -0.17491743 67.18383026 -0.17127991 C69.4562147 -0.17296311 71.72860857 -0.18252771 74.00092316 -0.20042419 C92.04233893 -0.32686817 105.09209287 1.2793063 118.54589844 14.36523438 C127.53727091 23.91856763 127.69112192 34.86710815 127.70703125 47.40258789 C127.71199615 48.35665527 127.71696106 49.31072266 127.72207642 50.29370117 C127.7365711 53.42041771 127.74347635 56.54708364 127.74902344 59.67382812 C127.7532645 61.28480535 127.7532645 61.28480535 127.75759125 62.92832756 C127.77252725 68.60448321 127.78179378 74.28061377 127.78613281 79.95678711 C127.79162957 85.80635573 127.81569905 91.65569302 127.84410477 97.50518894 C127.86275197 102.01857677 127.86793772 106.53190886 127.86946869 111.04533195 C127.87248768 113.20182506 127.88049066 115.35831737 127.89365387 117.51477242 C127.91076849 120.532244 127.90882154 123.54914955 127.90234375 126.56665039 C127.91155853 127.44947189 127.92077332 128.3322934 127.93026733 129.24186707 C127.86078661 139.60932071 123.47921172 149.00461821 116.50683594 156.65820312 C109.90948763 162.8475882 101.46487744 168.51611525 92.15232849 168.5670929 C90.80472694 168.57782585 90.80472694 168.57782585 89.42990112 168.58877563 C87.9548259 168.59280899 87.9548259 168.59280899 86.44995117 168.59692383 C85.4121904 168.60349503 84.37442963 168.61006622 83.30522156 168.61683655 C79.86331104 168.63658079 76.42144425 168.64823658 72.97949219 168.65820312 C71.21506618 168.66431642 71.21506618 168.66431642 69.41499519 168.67055321 C63.18543803 168.69142177 56.95590293 168.70571839 50.72631836 168.71508789 C44.30276533 168.72613555 37.8795603 168.76051467 31.45613003 168.80025959 C26.50858432 168.82645654 21.561121 168.83478264 16.61351204 168.83836937 C14.2465385 168.84322971 11.8795685 168.85482782 9.51266289 168.87340736 C6.19070109 168.89785651 2.86963238 168.89682246 -0.45239258 168.88989258 C-1.90621338 168.90910767 -1.90621338 168.90910767 -3.3894043 168.92871094 C-14.02777768 168.84825378 -22.87302173 164.86035088 -30.45410156 157.41992188 C-33.00075163 154.21064829 -35.23153427 150.85741584 -37.45410156 147.41992188 C-37.97230469 146.84628906 -38.49050781 146.27265625 -39.02441406 145.68164062 C-42.98368569 139.41820272 -42.75180981 131.3692384 -42.74462891 124.19360352 C-42.75134613 123.21348801 -42.75806335 122.2333725 -42.76498413 121.22355652 C-42.78385973 118.00901106 -42.78788266 114.79467543 -42.79003906 111.58007812 C-42.79647285 109.3300315 -42.80320164 107.0799857 -42.81021118 104.8299408 C-42.82215684 100.12366802 -42.82589466 95.4174685 -42.82470703 90.71118164 C-42.82450368 84.69805053 -42.85183503 78.68539117 -42.88625145 72.67237186 C-42.90854725 68.02849695 -42.91254379 63.38473525 -42.91148758 58.7408123 C-42.91383836 56.5245647 -42.92263221 54.30831373 -42.93815231 52.09211922 C-42.95787182 48.98629263 -42.9519511 45.88147964 -42.93994141 42.77563477 C-42.95118042 41.8719516 -42.96241943 40.96826843 -42.97399902 40.03720093 C-42.86457854 28.83316036 -37.81553517 19.66768194 -30.45410156 11.41992188 C-21.12564828 3.0821008 -12.36420782 -0.03900191 0 0 Z " fill="#1E91BA" transform="translate(1620.4541015625,1569.580078125)"/>
<path d="M0 0 C13.2 0 26.4 0 40 0 C42.475 5.94 42.475 5.94 45 12 C45.47566406 13.13695312 45.95132812 14.27390625 46.44140625 15.4453125 C48.66528899 20.76093467 50.84303196 26.0913173 52.97265625 31.4453125 C54.93193828 36.31744348 56.97156841 41.15635124 59 46 C61.70667223 52.4632052 64.38284876 58.93439086 66.97265625 65.4453125 C69.37609555 71.42192582 71.88001204 77.35845976 74.39453125 83.2890625 C74.84183594 84.34867188 75.28914063 85.40828125 75.75 86.5 C76.15734375 87.4590625 76.5646875 88.418125 76.984375 89.40625 C78 92 78 92 78.515625 94.28125 C78.67546875 94.8484375 78.8353125 95.415625 79 96 C79.66 96.33 80.32 96.66 81 97 C81 96.01 81 95.02 81 94 C81.66 94 82.32 94 83 94 C83.226875 92.7625 83.45375 91.525 83.6875 90.25 C85.03262069 84.18264712 87.49029068 78.66370224 90 73 C90.40089844 72.08734375 90.80179688 71.1746875 91.21484375 70.234375 C92.13475883 68.15228963 93.06242868 66.07418012 94 64 C94.66 64 95.32 64 96 64 C96.09796875 63.443125 96.1959375 62.88625 96.296875 62.3125 C97.2649566 57.37194561 98.66773978 53.293089 101.046875 48.86328125 C102.34009783 46.33513662 103.18562141 43.71459532 104 41 C104.66 41 105.32 41 106 41 C106.17789062 39.93265625 106.17789062 39.93265625 106.359375 38.84375 C107.03197793 35.8580492 108.03208981 33.30581841 109.25 30.5 C111.1335908 26.09771718 112.89086993 21.67450702 114.5625 17.1875 C116.35160686 12.46922451 118.42452266 8.32312267 121 4 C121.33 2.68 121.66 1.36 122 0 C135.2 0 148.4 0 162 0 C168.55591054 12.01916933 168.55591054 12.01916933 171 18 C172.07333197 20.33795082 173.15707249 22.67114513 174.25 25 C174.69907715 25.9590625 174.69907715 25.9590625 175.15722656 26.9375 C176.10374242 28.95883939 177.05168334 30.9795049 178 33 C179.25130952 35.66605538 180.5011012 38.33281463 181.75 41 C182.30171875 42.175625 182.8534375 43.35125 183.421875 44.5625 C185.00825278 48.01797635 186.50229153 51.50534691 188 55 C189.07333197 57.33795082 190.15707249 59.67114513 191.25 62 C191.54938477 62.639375 191.84876953 63.27875 192.15722656 63.9375 C193.10374242 65.95883939 194.05168334 67.9795049 195 70 C196.25130952 72.66605538 197.5011012 75.33281463 198.75 78 C199.30171875 79.175625 199.8534375 80.35125 200.421875 81.5625 C201.52283325 83.96062688 202.57797546 86.35365835 203.59765625 88.78515625 C204.8206065 91.58874414 206.04592733 93.67372301 208 96 C208.4125 94.865625 208.825 93.73125 209.25 92.5625 C210.34603655 89.62266365 211.5461762 86.77880617 212.875 83.9375 C214.72683354 79.86629343 216.13139462 75.68952352 217.5 71.4375 C219.00703383 66.75589281 220.68141528 62.40976192 223.03515625 58.08984375 C224.3308975 55.28327871 225.13473315 52.40364824 226 49.4375 C227.2472415 45.17933957 228.59540137 41.75718536 231 38 C232.98382592 34.03234815 233.85090647 29.61420408 235.00390625 25.34765625 C235.80229188 22.66445435 236.62239191 20.44536163 237.9375 18 C240.89131837 12.27138256 242.83220558 6.06982438 245 0 C258.2 0 271.4 0 285 0 C284.33922849 3.96462906 283.85706132 6.79689222 282.49707031 10.39038086 C282.19295227 11.20240463 281.88883423 12.01442841 281.57550049 12.85105896 C281.24636658 13.71360794 280.91723267 14.57615692 280.578125 15.46484375 C280.2362616 16.37520889 279.89439819 17.28557404 279.54217529 18.223526 C278.44993251 21.13015441 277.35049237 24.03398603 276.25 26.9375 C274.8140966 30.73692866 273.38179748 34.53769022 271.953125 38.33984375 C271.60761597 39.25845184 271.26210693 40.17705994 270.90612793 41.12350464 C268.44075637 47.71841054 266.1517873 54.35192172 263.99902344 61.05493164 C262.88311576 64.34456857 261.50559034 67.42358186 260.03125 70.5625 C258.65690475 73.81095241 257.58481132 77.14694684 256.5 80.5 C254.93523522 85.33654568 253.19219747 89.96177313 251.03125 94.5625 C249.65690475 97.81095241 248.58481132 101.14694684 247.5 104.5 C245.93523522 109.33654568 244.19219747 113.96177313 242.03125 118.5625 C240.65690475 121.81095241 239.58481132 125.14694684 238.5 128.5 C237.17683655 132.58977795 235.83015714 136.6035364 234 140.5 C231.61501425 145.58861333 229.96911778 150.91535639 228.24609375 156.25390625 C226.93200434 160.20441328 225.4618436 164.10175039 224 168 C213.77 168 203.54 168 193 168 C191.618125 164.926875 190.23625 161.85375 188.8125 158.6875 C187.98065286 156.83976085 187.14865978 154.99208739 186.31640625 153.14453125 C185.03008519 150.28884694 183.74564203 147.43238692 182.46484375 144.57421875 C180.54563853 140.31000393 178.56221181 136.10347572 176.4375 131.9375 C174.38907444 127.89169999 172.67291667 123.78938253 171.02734375 119.56640625 C168.48293103 113.21021173 165.54775138 107.03397433 162.4375 100.9375 C160.80343813 97.71504879 159.3633497 94.49538332 158.0625 91.125 C156.60210509 87.35035026 154.91587321 83.78550259 153.0625 80.1875 C149.31576042 72.8366632 145.80763113 65.08574787 144 57 C143.01 57 142.02 57 141 57 C140.91234375 57.97324219 140.8246875 58.94648437 140.734375 59.94921875 C140.06494179 64.60599281 138.21984361 68.57390281 136.25 72.8125 C135.88801514 73.61075195 135.52603027 74.40900391 135.15307617 75.23144531 C133.3003005 79.28994568 131.37358241 83.29245838 129.3125 87.25 C127.52298246 90.74131364 126.19036593 94.22005474 124.9375 97.9375 C121.14314823 108.96674114 116.07659374 119.50461977 111.28808594 130.12841797 C108.42814072 136.47803831 108.42814072 136.47803831 106 143 C105.34 143 104.68 143 104 143 C103.67 145.31 103.34 147.62 103 150 C102.34 150 101.68 150 101 150 C100.82984375 150.54527344 100.6596875 151.09054687 100.484375 151.65234375 C100.24203125 152.40644531 99.9996875 153.16054687 99.75 153.9375 C99.51796875 154.66839844 99.2859375 155.39929687 99.046875 156.15234375 C97.56571704 160.18131447 95.74339089 164.0773705 94 168 C84.43 168 74.86 168 65 168 C63.68 164.7 62.36 161.4 61 158 C60.360625 156.411875 59.72125 154.82375 59.0625 153.1875 C57.06439866 148.19616449 55.14244861 143.17663419 53.21875 138.15625 C52.1656104 135.42888847 51.09185418 132.71202489 50 130 C48.46232532 126.1806145 46.97321055 122.34472022 45.5 118.5 C43.38353163 112.97905958 41.21137779 107.48349778 39 102 C36.78111245 96.49788048 34.60857758 90.98299456 32.5 85.4375 C31.11762623 81.81979844 29.69856326 78.25972907 28.0625 74.75 C25.7523995 69.69782898 23.99132224 64.45311552 22.19360352 59.20214844 C20.64600087 54.70813848 18.89989841 50.36067108 17 46 C16.17611824 43.90026372 15.36340338 41.79610792 14.5625 39.6875 C13.06975575 35.77962923 11.56344339 31.88012468 10 28 C7.99438601 23.02250455 6.08518029 18.00966224 4.171875 12.99609375 C3.2310392 10.59069022 2.24343981 8.23094118 1.1875 5.875 C0 3 0 3 0 0 Z " fill="#1B89B1" transform="translate(1758,1570)"/>
<path d="M0 0 C0.87723724 -0.00860046 1.75447449 -0.01720093 2.65829468 -0.02606201 C3.61826355 -0.03032196 4.57823242 -0.03458191 5.56729126 -0.03897095 C6.58072601 -0.04714844 7.59416077 -0.05532593 8.63830566 -0.06375122 C12.00085869 -0.08861128 15.36336927 -0.10512849 18.72598267 -0.11953735 C20.45169432 -0.12752287 20.45169432 -0.12752287 22.21226883 -0.13566971 C28.30911849 -0.16241192 34.40594765 -0.181778 40.50283813 -0.19619751 C45.53492546 -0.20950347 50.56660408 -0.23729341 55.59854126 -0.27822876 C61.68397423 -0.32773252 67.76903814 -0.35234137 73.85466385 -0.35942459 C76.16614431 -0.36611032 78.47761742 -0.38126184 80.78898239 -0.4053154 C104.00617768 -0.63302008 104.00617768 -0.63302008 114.70254517 5.15390015 C114.70254517 5.81390015 114.70254517 6.47390015 114.70254517 7.15390015 C115.44504517 7.40140015 116.18754517 7.64890015 116.95254517 7.90390015 C124.85764288 11.49712638 129.58458119 20.40582657 132.70254517 28.15390015 C133.70254517 32.15390015 133.70254517 32.15390015 133.70254517 47.15390015 C121.16254517 47.15390015 108.62254517 47.15390015 95.70254517 47.15390015 C95.37254517 44.84390015 95.04254517 42.53390015 94.70254517 40.15390015 C92.85782616 38.30918114 90.25738104 39.03387825 87.80314636 39.02947998 C86.53216347 39.03487289 86.53216347 39.03487289 85.23550415 39.04037476 C84.3477832 39.04022873 83.46006226 39.0400827 82.54544067 39.03993225 C79.59648232 39.04063172 76.6475863 39.04842566 73.69863892 39.0562439 C71.65982599 39.05810796 69.62101263 39.05953192 67.5821991 39.06053162 C62.20469943 39.06435774 56.82722659 39.07418882 51.44973755 39.0852356 C45.96695315 39.09544769 40.48416445 39.1000288 35.00137329 39.10507202 C24.23508354 39.11581101 13.46882078 39.13340857 2.70254517 39.15390015 C2.70254517 47.40390015 2.70254517 55.65390015 2.70254517 64.15390015 C5.57812134 64.16324585 8.45369751 64.17259155 11.41641235 64.18222046 C20.95189938 64.21609356 30.48717234 64.27169979 40.02248764 64.33780289 C45.79980298 64.37719421 51.5769678 64.40942363 57.35440063 64.42489624 C62.93725466 64.44011774 68.51969462 64.47466071 74.10236359 64.52220917 C76.22479896 64.53696642 78.34729346 64.54493789 80.46977997 64.545784 C97.41528837 64.55932434 110.842758 65.94028074 123.73770142 78.06796265 C131.51364485 86.35569854 133.83086067 95.19897088 133.94082642 106.34921265 C133.94889816 107.13730316 133.95696991 107.92539368 133.96528625 108.73736572 C133.97907963 110.40320672 133.98982289 112.06907541 133.99771118 113.73495483 C134.00919456 115.42026184 134.02958839 117.10553353 134.05923462 118.7906189 C134.31947396 133.60826869 132.50103421 145.93556619 121.81973267 157.1265564 C117.54718286 161.0723818 113.10071774 163.98847351 107.70254517 166.15390015 C106.8797406 166.49523483 106.05693604 166.83656952 105.209198 167.18824768 C100.59236241 168.45961924 96.30809903 168.44106073 91.54141235 168.42855835 C90.53247421 168.43366928 89.52353607 168.43878021 88.48402405 168.44404602 C85.15576202 168.45792096 81.82770764 168.45698642 78.49942017 168.4546814 C76.17782515 168.45857022 73.85623084 168.46290528 71.53463745 168.46766663 C66.66919652 168.47512489 61.80382814 168.47484092 56.93838501 168.46957397 C50.72010264 168.46378802 44.50211898 168.48069139 38.28388596 168.50391865 C33.48817219 168.51869255 28.69252968 168.51952256 23.89679718 168.51640892 C21.6052008 168.51692056 19.31360027 168.52212858 17.02202606 168.53222084 C13.80824228 168.54463499 10.59503155 168.53776285 7.3812561 168.5262146 C6.44480759 168.53385834 5.50835907 168.54150208 4.54353333 168.54937744 C-6.88189076 168.45918507 -16.22262701 164.98055561 -24.49667358 157.04452515 C-34.53348825 146.28416931 -36.29745483 137.04310871 -36.29745483 122.15390015 C-24.08745483 122.15390015 -11.87745483 122.15390015 0.70254517 122.15390015 C1.36254517 124.46390015 2.02254517 126.77390015 2.70254517 129.15390015 C48.24254517 129.64890015 48.24254517 129.64890015 94.70254517 130.15390015 C94.70254517 121.90390015 94.70254517 113.65390015 94.70254517 105.15390015 C92.5585523 103.00990728 87.60172637 103.99959301 84.62808228 103.9961853 C83.67518311 103.99110458 82.72228394 103.98602386 81.74050903 103.98078918 C79.66266244 103.97005794 77.58480409 103.96144865 75.50694084 103.95466995 C72.21551802 103.94291131 68.92422823 103.92346386 65.63285828 103.90155029 C56.27144827 103.83984978 46.91004931 103.78596594 37.54849243 103.75253296 C31.82841794 103.73155159 26.10858149 103.69621265 20.38864326 103.65177536 C18.209863 103.63763431 16.03104056 103.62889722 13.85221672 103.62572098 C10.79548261 103.62079576 7.73937579 103.59759323 4.68276978 103.57040405 C3.33968498 103.57491325 3.33968498 103.57491325 1.96946716 103.57951355 C-8.46782725 103.44209701 -16.9852085 99.23109133 -24.50448608 92.04452515 C-33.00467998 82.89774879 -36.61410224 73.29266432 -36.59823608 60.84921265 C-36.60252121 60.08519135 -36.60680634 59.32117004 -36.61122131 58.53399658 C-36.61692472 56.92895491 -36.61749459 55.32388742 -36.61312866 53.71884155 C-36.6099716 51.29178804 -36.63346687 48.86595957 -36.65878296 46.4390564 C-36.71984692 31.93543462 -34.34448498 21.81304204 -24.19198608 10.88827515 C-19.08155942 6.00397355 -14.00058648 3.29551441 -7.29745483 1.15390015 C-4.53131311 0.2318529 -2.85547699 0.0208805 0 0 Z " fill="#076587" transform="translate(2884.2974548339844,1569.8460998535156)"/>
<path d="M0 0 C63.36 0 126.72 0 192 0 C192 12.87 192 25.74 192 39 C141.18 39 90.36 39 38 39 C38 54.51 38 70.02 38 86 C78.59 86 119.18 86 161 86 C161 98.54 161 111.08 161 124 C120.41 124 79.82 124 38 124 C38 152.05 38 180.1 38 209 C25.46 209 12.92 209 0 209 C0 140.03 0 71.06 0 0 Z " fill="#249CC7" transform="translate(1273,1529)"/>
<path d="M0 0 C22.3575 -0.0825 44.715 -0.165 67.75 -0.25 C74.79311523 -0.28641602 81.83623047 -0.32283203 89.09277344 -0.36035156 C97.73486328 -0.37841797 97.73486328 -0.37841797 101.78863525 -0.3817749 C104.60240457 -0.38548132 107.41586789 -0.40038935 110.22955322 -0.42230225 C113.83180046 -0.44997968 117.43361031 -0.45792088 121.035954 -0.4522891 C122.96401902 -0.45401432 124.892037 -0.47534303 126.81997299 -0.497715 C135.52472714 -0.4566104 143.16878541 1.0843927 151 5 C151 5.66 151 6.32 151 7 C151.680625 7.185625 152.36125 7.37125 153.0625 7.5625 C161.60821702 11.74444663 165.33688682 19.59204895 169 28 C170.04186458 31.12559373 170.12325415 33.28321358 170.12025452 36.56181335 C170.12231651 38.297108 170.12231651 38.297108 170.12442017 40.06745911 C170.12082489 41.33772446 170.11722961 42.60798981 170.11352539 43.91674805 C170.11324334 45.26692706 170.1134016 46.61710623 170.1139679 47.96728516 C170.11425517 51.63435933 170.10836971 55.30140089 170.10139394 58.96846747 C170.09514878 62.80016906 170.09455568 66.63187138 170.09336853 70.46357727 C170.09025865 77.72021628 170.08204987 84.97684026 170.07201904 92.23347265 C170.06084727 100.49456797 170.05534477 108.755664 170.05032361 117.016765 C170.03986698 134.01118686 170.02152575 151.00558801 170 168 C157.46 168 144.92 168 132 168 C131.67 125.43 131.34 82.86 131 39 C100.64 39 70.28 39 39 39 C38.67 81.57 38.34 124.14 38 168 C25.46 168 12.92 168 0 168 C0 112.56 0 57.12 0 0 Z " fill="#0F7397" transform="translate(2455,1570)"/>
<path d="M0 0 C12.54 0 25.08 0 38 0 C38.02505615 5.53837646 38.0501123 11.07675293 38.07592773 16.78295898 C38.15920694 35.03162853 38.2478669 53.28026896 38.33933926 71.52889919 C38.39469501 82.59876368 38.4481808 93.66863139 38.49731445 104.73852539 C38.54012755 114.38333081 38.58639816 124.02811226 38.63687855 133.67288071 C38.66350272 138.78305155 38.68835629 143.89321757 38.70907402 149.00341606 C38.72860501 153.80744889 38.75273796 158.61143601 38.78049088 163.41542816 C38.78988013 165.18397508 38.79754861 166.95253204 38.80341911 168.72109413 C38.81164861 171.12489935 38.82591605 173.52859269 38.84178162 175.93235779 C38.84275972 176.64148848 38.84373783 177.35061918 38.84474558 178.08123869 C38.59897462 181.3208476 38.59897462 181.3208476 40 184 C42.51856175 184.15986946 45.01364174 184.25941894 47.53515625 184.31640625 C48.53621399 184.34438293 48.53621399 184.34438293 49.55749512 184.3729248 C52.05902417 184.44140741 54.56077882 184.50143787 57.0625 184.5625 C62.651875 184.706875 68.24125 184.85125 74 185 C74 197.54 74 210.08 74 223 C68.05845179 223.09227599 62.11943058 223.17177872 56.17773438 223.21972656 C54.16039565 223.23973216 52.1431141 223.2669456 50.12597656 223.30175781 C47.21144427 223.35076577 44.29768441 223.37307964 41.3828125 223.390625 C40.49385284 223.41127014 39.60489319 223.43191528 38.68899536 223.45318604 C28.19989798 223.45687034 20.3885211 219.30991421 12.55078125 212.55859375 C2.23649943 202.21272148 -0.38115916 190.91502704 -0.3732605 176.8225708 C-0.36264594 175.06066723 -0.35174155 173.2987654 -0.34057617 171.53686523 C-0.33972908 169.66364048 -0.34020665 167.79041473 -0.34190369 165.91719055 C-0.34276185 160.85168127 -0.32516509 155.78638657 -0.30418181 150.720927 C-0.28538513 145.41984324 -0.28366221 140.11875416 -0.28010559 134.81764221 C-0.27079392 124.78809273 -0.24619199 114.75864175 -0.21605712 104.72913557 C-0.1824858 93.30715081 -0.16602023 81.88516126 -0.15097082 70.46313941 C-0.11964166 46.97535915 -0.06464052 23.48771384 0 0 Z " fill="#2196C1" transform="translate(1482,1515)"/>
<path d="M0 0 C11.96075236 -0.04626639 23.92148356 -0.08184014 35.88230705 -0.10362434 C41.43573026 -0.11407774 46.98909241 -0.12826523 52.54248047 -0.15087891 C57.89816008 -0.17255192 63.25378082 -0.1845569 68.60950089 -0.18975449 C70.65651502 -0.19346023 72.7035258 -0.20069624 74.75051498 -0.21146011 C77.60962733 -0.22590142 80.46849399 -0.22798104 83.32763672 -0.22705078 C84.60725281 -0.23783661 84.60725281 -0.23783661 85.91271973 -0.24884033 C91.77189568 -0.22810432 91.77189568 -0.22810432 94 2 C94.19863343 4.79051091 94.27269851 7.48179048 94.25878906 10.2734375 C94.2622937 11.12883118 94.26579834 11.98422485 94.26940918 12.86553955 C94.27823477 15.70210814 94.27237445 18.53842873 94.265625 21.375 C94.26697141 23.34033252 94.26891174 25.30566472 94.27142334 27.27099609 C94.27437572 31.39358689 94.27007328 35.51609113 94.26074219 39.63867188 C94.2493476 44.9318633 94.25590646 50.22485191 94.26788712 55.51803589 C94.27510263 59.57740822 94.27281921 63.6367322 94.26763153 67.69610596 C94.26629418 69.64821395 94.26794573 71.60032628 94.27259064 73.5524292 C94.2776508 76.27725915 94.26995288 79.00175736 94.25878906 81.7265625 C94.26283752 82.53909485 94.26688599 83.3516272 94.27105713 84.18878174 C94.22852813 89.77147187 94.22852813 89.77147187 92 92 C89.07751618 92.18827993 86.25049178 92.2516874 83.32763672 92.22705078 C82.43001617 92.22734283 81.53239563 92.22763489 80.60757446 92.22793579 C77.63151485 92.22653903 74.65570355 92.21096156 71.6796875 92.1953125 C69.61988461 92.1915836 67.56007995 92.18873605 65.50027466 92.18673706 C60.0717888 92.1790909 54.6434095 92.15943399 49.21496582 92.1373291 C43.67848146 92.1168918 38.14197993 92.10773988 32.60546875 92.09765625 C21.73693228 92.07618902 10.86847499 92.04204126 0 92 C-1.61046376 88.77907248 -1.13820841 85.26448038 -1.12939453 81.7265625 C-1.13202301 80.44347198 -1.13202301 80.44347198 -1.13470459 79.13446045 C-1.13911729 76.29795319 -1.13618715 73.46150793 -1.1328125 70.625 C-1.13348571 68.65966785 -1.13445587 66.69433577 -1.13571167 64.72900391 C-1.13718785 60.60643726 -1.13503662 56.48389226 -1.13037109 52.36132812 C-1.12467386 47.06818927 -1.12795328 41.77510111 -1.13394356 36.48196411 C-1.1375513 32.42260351 -1.1364096 28.363255 -1.13381577 24.30389404 C-1.13314709 22.35178624 -1.13397286 20.39967734 -1.13629532 18.4475708 C-1.13882532 15.72282999 -1.13497629 12.99817211 -1.12939453 10.2734375 C-1.13141876 9.46090515 -1.13344299 8.6483728 -1.13552856 7.81121826 C-1.11426407 2.22852813 -1.11426407 2.22852813 0 0 Z " fill="#FCFDFD" transform="translate(2687,1608)"/>
<path d="M0 0 C0.88465439 -0.00335861 1.76930878 -0.00671722 2.68077087 -0.01017761 C5.61466869 -0.01970238 8.54850955 -0.02163137 11.48242188 -0.02270508 C13.51501489 -0.02591618 15.54760767 -0.02928014 17.5802002 -0.03279114 C21.8439996 -0.03878594 26.10777871 -0.04063064 30.37158203 -0.04003906 C35.8463592 -0.03993733 41.32100701 -0.05359991 46.79575348 -0.07081127 C50.99408572 -0.08190551 55.19238641 -0.08395908 59.39073181 -0.08342934 C61.40983019 -0.08461295 63.42892929 -0.08905593 65.44801331 -0.0967617 C68.2662169 -0.10651139 71.084136 -0.10370373 73.90234375 -0.09765625 C74.74292831 -0.10327576 75.58351288 -0.10889526 76.4495697 -0.11468506 C82.2228554 -0.0830528 82.2228554 -0.0830528 84.45117188 2.14526367 C84.64980531 4.93577459 84.72387039 7.62705415 84.70996094 10.41870117 C84.71346558 11.27409485 84.71697021 12.12948853 84.72058105 13.01080322 C84.72940664 15.84737182 84.72354632 18.6836924 84.71679688 21.52026367 C84.71814329 23.48559619 84.72008362 25.45092839 84.72259521 27.41625977 C84.7255476 31.53885056 84.72124516 35.6613548 84.71191406 39.78393555 C84.70051948 45.07712697 84.70707834 50.37011559 84.71905899 55.66329956 C84.7262745 59.72267189 84.72399108 63.78199587 84.71880341 67.84136963 C84.71746605 69.79347762 84.7191176 71.74558995 84.72376251 73.69769287 C84.72882268 76.42252282 84.72112475 79.14702103 84.70996094 81.87182617 C84.7140094 82.68435852 84.71805786 83.49689087 84.722229 84.33404541 C84.67970001 89.91673554 84.67970001 89.91673554 82.45117188 92.14526367 C79.56991346 92.34401233 76.78475123 92.41793512 73.90234375 92.40405273 C73.01768936 92.40755737 72.13303497 92.41106201 71.22157288 92.41467285 C68.28761017 92.42349933 65.35388718 92.41763779 62.41992188 92.41088867 C60.38732863 92.41223506 58.3547357 92.41417537 56.32214355 92.41668701 C52.05831848 92.41963952 47.79457709 92.41533656 43.53076172 92.40600586 C38.05597015 92.39461128 32.58137464 92.40117007 27.10659027 92.41315079 C22.90824904 92.42036597 18.70995455 92.41808303 14.51161194 92.4128952 C12.49251787 92.41155776 10.47341961 92.41320972 8.45433044 92.41785431 C5.63610536 92.42291392 2.8182011 92.41521729 0 92.40405273 C-0.84058456 92.4081012 -1.68116913 92.41214966 -2.54722595 92.4163208 C-8.3203002 92.37379159 -8.3203002 92.37379159 -10.54882812 90.14526367 C-10.73700212 87.31353272 -10.80056192 84.58035616 -10.77587891 81.74829102 C-10.77617096 80.87993118 -10.77646301 80.01157135 -10.77676392 79.11689758 C-10.7753673 76.23823149 -10.75979055 73.35982221 -10.74414062 70.48120117 C-10.74041167 68.48865907 -10.73756415 66.49611514 -10.73556519 64.50357056 C-10.72791944 59.25263428 -10.70826289 54.00180819 -10.68615723 48.75091553 C-10.66571903 43.39540091 -10.65656781 38.03986853 -10.64648438 32.68432617 C-10.62501788 22.17125686 -10.59087061 11.65826942 -10.54882812 1.14526367 C-7.26171974 -0.49829052 -3.61305163 -0.00194791 0 0 Z " fill="#FBFDFD" transform="translate(2309.548828125,1607.854736328125)"/>
<path d="M0 0 C1.28265244 0.00303635 1.28265244 0.00303635 2.59121704 0.00613403 C3.93501938 0.00350555 3.93501938 0.00350555 5.30596924 0.00082397 C8.28258166 -0.0035959 11.25913521 -0.00065608 14.23574829 0.00271606 C16.2945863 0.00204306 18.35342423 0.00107307 20.41226196 -0.00018311 C24.73331456 -0.00166026 29.05434652 0.00049505 33.37539673 0.00515747 C38.92761375 0.01085477 44.47978244 0.00757586 50.03199768 0.00158501 C54.2851905 -0.00202012 58.53837178 -0.00088224 62.79156494 0.0017128 C64.83939622 0.0023822 66.88722852 0.00155319 68.93505859 -0.00076675 C71.79182737 -0.00329249 74.64851672 0.0005462 77.50527954 0.00613403 C78.36038116 0.0041098 79.21548279 0.00208557 80.09649658 0 C85.9339859 0.02126618 85.9339859 0.02126618 87.04824829 1.13552856 C87.14876704 3.93005127 87.18440723 6.69989211 87.17764282 9.49490356 C87.1802713 10.80944519 87.1802713 10.80944519 87.18295288 12.15054321 C87.18737261 15.06222484 87.18443298 17.97384627 87.18106079 20.88552856 C87.1817338 22.89952608 87.18270379 24.91352352 87.18395996 26.92752075 C87.1854371 31.15441662 87.18328187 35.38129139 87.17861938 39.60818481 C87.17292209 45.03933389 87.17620101 50.47043355 87.18219185 55.90158081 C87.18579703 60.06212744 87.18465907 64.22266226 87.18206406 68.38320923 C87.18139467 70.38638312 87.18222362 72.38955806 87.18454361 74.39273071 C87.18706944 77.18723409 87.18323053 79.98165627 87.17764282 82.77615356 C87.17966705 83.61255371 87.18169128 84.44895386 87.18377686 85.31069946 C87.16251071 91.02126614 87.16251071 91.02126614 86.04824829 92.13552856 C83.22858887 92.24138947 80.43329309 92.2823063 77.61294556 92.28079224 C76.72843719 92.28415085 75.84392883 92.28750946 74.93261719 92.29096985 C71.99328223 92.30050999 69.05400404 92.30242448 66.11465454 92.30349731 C64.08063228 92.30670773 62.04661026 92.31007164 60.0125885 92.31358337 C55.74281275 92.3195823 51.47305726 92.32142249 47.20327759 92.3208313 C41.72062466 92.32072963 36.2381011 92.33438383 30.75547886 92.35160351 C26.55285541 92.36269884 22.35026348 92.36475127 18.14762688 92.36422157 C16.12573742 92.36540535 14.10384724 92.36984919 12.08197212 92.37755394 C9.25886999 92.38730435 6.43605184 92.3844955 3.61294556 92.37844849 C2.77078995 92.38406799 1.92863434 92.3896875 1.06095886 92.39547729 C-4.72343639 92.36384388 -4.72343639 92.36384388 -6.95175171 90.13552856 C-7.14517525 87.3092863 -7.21396382 84.58140435 -7.19467163 81.75442505 C-7.19656998 80.88767151 -7.19846832 80.02091797 -7.20042419 79.12789917 C-7.20413831 76.25404911 -7.19341955 73.38045003 -7.18222046 70.50662231 C-7.181029 68.51647471 -7.18057542 66.52632653 -7.18083191 64.53617859 C-7.17926599 60.36230965 -7.17096747 56.18852635 -7.15756226 52.01467896 C-7.14056126 46.65193343 -7.13674816 41.28928203 -7.13750744 35.92651272 C-7.13723615 31.81657505 -7.13176169 27.70665815 -7.124506 23.59672737 C-7.12131351 21.61867493 -7.11935058 19.64062012 -7.11861229 17.66256523 C-7.11645546 14.90408146 -7.10772589 12.1456996 -7.09701538 9.38723755 C-7.09746857 8.56175919 -7.09792175 7.73628082 -7.09838867 6.88578796 C-7.05964413 0.09666535 -6.77064921 0.02466571 0 0 Z " fill="#FDFEFE" transform="translate(1622.9517517089844,1607.8644714355469)"/>
<path d="M0 0 C1.26626976 0.00067978 1.26626976 0.00067978 2.55812073 0.00137329 C3.44262909 -0.00198532 4.32713745 -0.00534393 5.2384491 -0.00880432 C8.17778406 -0.01834447 11.11706224 -0.02025895 14.05641174 -0.02133179 C16.090434 -0.02454221 18.12445602 -0.02790611 20.15847778 -0.03141785 C24.42825354 -0.03741677 28.69800902 -0.03925696 32.9677887 -0.03866577 C38.45044162 -0.0385641 43.93296519 -0.05221831 49.41558743 -0.06943798 C53.61821087 -0.08053331 57.82080281 -0.08258574 62.02343941 -0.08205605 C64.04532886 -0.08323982 66.06721904 -0.08768366 68.08909416 -0.09538841 C70.9121963 -0.10513882 73.73501444 -0.10232997 76.55812073 -0.09628296 C77.40027634 -0.10190247 78.24243195 -0.10752197 79.11010742 -0.11331177 C84.89450267 -0.08167836 84.89450267 -0.08167836 87.12281799 2.14663696 C87.31620682 4.93741332 87.38504407 7.62856988 87.36573792 10.42007446 C87.36763626 11.27546814 87.36953461 12.13086182 87.37149048 13.01217651 C87.37520486 15.84875562 87.36448463 18.68508049 87.35328674 21.52163696 C87.35209519 23.48696869 87.35164173 25.45230099 87.35189819 27.41763306 C87.35033218 31.54022782 87.34203356 35.66273589 87.32862854 39.78530884 C87.31163855 45.07845394 87.30781414 50.37150368 87.30857372 55.66467285 C87.30830221 59.72403886 87.30282404 63.78338388 87.29557228 67.84274292 C87.29238272 69.79484905 87.29041754 71.74695757 87.28967857 73.69906616 C87.28751805 76.42381874 87.27878003 79.14846879 87.26808167 81.87319946 C87.26853485 82.68573181 87.26898804 83.49826416 87.26945496 84.3354187 C87.23729485 89.91768324 87.23729485 89.91768324 86.12281799 92.14663696 C74.29244963 92.19290385 62.46210266 92.22847735 50.63166237 92.25026131 C45.13877297 92.26071459 39.6459453 92.27490189 34.15309143 92.29751587 C28.85576645 92.31918927 23.55850098 92.33119394 18.2611351 92.33639145 C16.23644956 92.34009713 14.21176741 92.347333 12.18710709 92.35809708 C9.35912697 92.3725389 6.53139524 92.37461798 3.7033844 92.37368774 C2.85965775 92.3808783 2.01593109 92.38806885 1.14663696 92.39547729 C-4.64907768 92.37474129 -4.64907768 92.37474129 -6.87718201 90.14663696 C-7.07060555 87.3203947 -7.13939411 84.59251274 -7.12010193 81.76553345 C-7.12200027 80.89877991 -7.12389862 80.03202637 -7.12585449 79.13900757 C-7.1295686 76.26515751 -7.11884985 73.39155842 -7.10765076 70.51773071 C-7.1064593 68.52758311 -7.10600572 66.53743493 -7.10626221 64.54728699 C-7.10469629 60.37341805 -7.09639777 56.19963475 -7.08299255 52.02578735 C-7.06599156 46.66304183 -7.06217846 41.30039043 -7.06293774 35.93762112 C-7.06266644 31.82768345 -7.05719199 27.71776655 -7.04993629 23.60783577 C-7.04674381 21.62978332 -7.04478088 19.65172851 -7.04404259 17.67367363 C-7.04188576 14.91518986 -7.03315619 12.156808 -7.02244568 9.39834595 C-7.02289886 8.57286758 -7.02335205 7.74738922 -7.02381897 6.89689636 C-6.98533606 0.15361793 -6.73142778 0.03756932 0 0 Z " fill="#FDFEFE" transform="translate(2114.877182006836,1607.8533630371094)"/>
<path d="M0 0 C30.03 0 60.06 0 91 0 C91 0.33 91 0.66 91 1 C89.89166306 1.01030746 88.78332611 1.02061493 87.6414032 1.03123474 C77.20853539 1.12888985 66.77572827 1.23161645 56.3429594 1.33933926 C50.97906753 1.39455989 45.61517019 1.44797859 40.2512207 1.49731445 C35.07704169 1.54497058 29.90292959 1.59731396 24.72883034 1.65294075 C22.75244622 1.67335862 20.77604376 1.69207265 18.7996273 1.70907402 C16.03651661 1.7331305 13.27353255 1.7631835 10.51049805 1.79467773 C9.2783532 1.80331093 9.2783532 1.80331093 8.02131653 1.81211853 C4.76485528 1.85445266 2.11067033 1.96310989 -1 3 C-0.67 2.01 -0.34 1.02 0 0 Z " fill="#C3DEE8" transform="translate(2109,1608)"/>
<path d="M0 0 C0.66 0.33 1.32 0.66 2 1 C-7.24 10.24 -16.48 19.48 -26 29 C-26 24.68561573 -23.3974631 22.82821062 -20.5625 19.875 C-20.01843506 19.2982251 -19.47437012 18.7214502 -18.91381836 18.12719727 C-5.85491151 4.34396661 -5.85491151 4.34396661 0 0 Z " fill="#297C9A" transform="translate(567,1842)"/>
<path d="M0 0 C0.66 0.33 1.32 0.66 2 1 C-3.94 6.94 -9.88 12.88 -16 19 C-16 13.49581073 -10.69222469 9.76817235 -7 6 C-4.72454022 3.90179524 -2.40856363 1.94734932 0 0 Z " fill="#52B0D2" transform="translate(358,1558)"/>
<path d="M0 0 C0.66 0.33 1.32 0.66 2 1 C-4.27 7.27 -10.54 13.54 -17 20 C-17 15.82063392 -15.24808305 14.71589277 -12.4375 11.6875 C-11.98584473 11.19983154 -11.53418945 10.71216309 -11.06884766 10.2097168 C-7.59122576 6.5046503 -3.95528271 3.18142305 0 0 Z " fill="#D1E3E9" transform="translate(549,1736)"/>
<path d="M0 0 C0.66 0.33 1.32 0.66 2 1 C-1.96 4.96 -5.92 8.92 -10 13 C-10 8.97698923 -8.67577112 7.95743123 -6 5 C-4.05056443 3.25501743 -2.04941287 1.63021478 0 0 Z " fill="#4FABCB" transform="translate(1596,1576)"/>
</svg>
